<?xml version="1.0" encoding="UTF-8"?>
<svg width="40px" height="40px" viewBox="0 0 40 40" version="1.1" xmlns="http://www.w3.org/2000/svg" xmlns:xlink="http://www.w3.org/1999/xlink">
    <title>discord-icn</title>
    <g id="Page-1" stroke="none" stroke-width="1" fill="none" fill-rule="evenodd">
        <g id="Idena_website/05a_contribute_translations" transform="translate(-828.000000, -156.000000)" fill-rule="nonzero">
            <g id="Group-19" transform="translate(508.000000, 156.000000)">
                <g id="Group-18" transform="translate(320.000000, 0.000000)">
                    <rect id="discord-icn" fill="#D8D8D8" opacity="0" x="0" y="0" width="40" height="40"></rect>
                    <g id="discord_icn" transform="translate(8.000000, 8.000000)" fill="#53565C">
                        <path d="M21.1885,0 L2.8116,0 C1.26178,0 0,1.26169 0,2.82516 L0,21.3668 C0,22.9303 1.26169,24.192 2.8115,24.192 L18.3635,24.192 L17.6365,21.6548 L19.392,23.2868 L21.0514,24.8228 L24,27.4285 L24,2.82516 C24,1.26169 22.7383,0 21.1885,0 Z M15.8948,17.9109 C15.8948,17.9109 15.4012,17.3212 14.9897,16.8 C16.7863,16.2925 17.472,15.168 17.472,15.168 C16.9097,15.5383 16.3748,15.7989 15.8948,15.9771 C15.2092,16.2652 14.5508,16.4571 13.9063,16.5668 C12.5897,16.8137 11.3828,16.7452 10.3543,16.5532 C9.5725,16.4022 8.9005,16.1828 8.3383,15.9635 C8.0228,15.84 7.68,15.6892 7.3371,15.4972 C7.296,15.4697 7.2548,15.456 7.2137,15.4285 C7.1863,15.4148 7.1725,15.4012 7.1588,15.3875 C6.912,15.2503 6.7748,15.1543 6.7748,15.1543 C6.7748,15.1543 7.4332,16.2515 9.1748,16.7725 C8.7635,17.2938 8.256,17.9109 8.256,17.9109 C5.2251,17.8148 4.0732,15.8263 4.0732,15.8263 C4.0732,11.4103 6.048,7.8308 6.048,7.8308 C8.0228,6.3497 9.9017,6.39058717 9.9017,6.39058717 L10.0388,6.5555 C7.5703,7.2684 6.432,8.352 6.432,8.352 C6.432,8.352 6.7337,8.1875 7.2411,7.9543 C8.7085,7.3097 9.8743,7.1315 10.3543,7.0903 C10.4365,7.0765 10.5052,7.0628 10.5875,7.0628 C11.5065,6.9431 12.4366,6.9339 13.3578,7.0355 C14.6605,7.1863 16.0595,7.5703 17.4857,8.352 C17.4857,8.352 16.4023,7.3235 14.0708,6.6103 L14.2628,6.3909 C14.2628,6.3909 16.1417,6.3497 18.1165,7.8309 C18.1165,7.8309 20.0915,11.4103 20.0915,15.8263 C20.0915,15.8263 18.9257,17.8148 15.8948,17.9109 Z M9.5177,11.5063 C8.736,11.5063 8.1189,12.192 8.1189,13.0285 C8.1189,13.8652 8.7497,14.5508 9.5177,14.5508 C10.2995,14.5508 10.9165,13.8652 10.9165,13.0285 C10.9303,12.192 10.2995,11.5063 9.5178,11.5063 L9.5177,11.5063 Z M14.5235,11.5063 C13.7417,11.5063 13.1245,12.192 13.1245,13.0285 C13.1245,13.8652 13.7555,14.5508 14.5235,14.5508 C15.3052,14.5508 15.9222,13.8652 15.9222,13.0285 C15.9222,12.192 15.3052,11.5063 14.5235,11.5063 Z" id="Shape"></path>
                    </g>
                </g>
            </g>
        </g>
    </g>
</svg>