<?xml version="1.0" encoding="UTF-8"?>
<svg width="40px" height="40px" viewBox="0 0 40 40" version="1.1" xmlns="http://www.w3.org/2000/svg" xmlns:xlink="http://www.w3.org/1999/xlink">
    <title>Rectangle</title>
    <g id="Page-1" stroke="none" stroke-width="1" fill="none" fill-rule="evenodd">
        <g id="Idena_website/05a_contribute_translations" transform="translate(-700.000000, -156.000000)">
            <g id="Group-19" transform="translate(508.000000, 156.000000)">
                <g id="github_icn" transform="translate(192.000000, 0.000000)">
                    <rect id="gitlab-icn" fill="#D8D8D8" fill-rule="nonzero" opacity="0" x="0" y="0" width="40" height="40"></rect>
                    <path d="M20.0000483,7 C12.8212693,7 7,12.9675083 7,20.3290643 C7,26.2183489 10.7249084,31.2145545 15.8902914,32.9771163 C16.5398925,33.1004501 16.7785373,32.6879166 16.7785373,32.3358603 C16.7785373,32.0180082 16.7663536,30.9679862 16.760842,29.8542152 C13.144136,30.6605441 12.3810142,28.2816111 12.3810142,28.2816111 C11.7896238,26.7409309 10.9375421,26.3312726 10.9375421,26.3312726 C9.75814568,25.5040245 11.026502,25.520978 11.026502,25.520978 C12.3319895,25.6150645 13.0193986,26.8946024 13.0193986,26.8946024 C14.178779,28.9322857 16.0605724,28.3431788 16.8023244,28.002623 C16.919036,27.1410715 17.2560202,26.5531543 17.6277182,26.2203317 C14.7402905,25.8831468 11.7048218,24.7402279 11.7048218,19.6329823 C11.7048218,18.1777633 12.2126671,16.9886438 13.0443461,16.0552137 C12.909359,15.7195159 12.4643658,14.3638364 13.1702438,12.5278096 C13.1702438,12.5278096 14.2619373,12.1696065 16.746241,13.8941966 C17.783108,13.5987509 18.8952043,13.4507306 20.0000483,13.4456743 C21.1048924,13.4507306 22.2178589,13.5987509 23.2567566,13.8941966 C25.7380627,12.1696065 26.8282091,12.5278096 26.8282091,12.5278096 C27.5358276,14.3638364 27.090641,15.7195159 26.9556539,16.0552137 C27.7891701,16.9886438 28.2935344,18.1776641 28.2935344,19.6329823 C28.2935344,24.7524225 25.2523607,25.8796768 22.3575841,26.2096243 C22.8238503,26.6232483 23.2393514,27.4345344 23.2393514,28.6779842 C23.2393514,30.4613661 23.2242669,31.8967565 23.2242669,32.3358603 C23.2242669,32.6905935 23.4582703,33.1062003 24.1172509,32.9753318 C29.2798297,31.210787 33,26.216366 33,20.3290643 C33,12.9675083 27.1796009,7 20.0000483,7" id="Path" fill="#53565C"></path>
                </g>
            </g>
        </g>
    </g>
</svg>