<?xml version="1.0" encoding="UTF-8"?>
<svg width="40px" height="40px" viewBox="0 0 40 40" version="1.1" xmlns="http://www.w3.org/2000/svg" xmlns:xlink="http://www.w3.org/1999/xlink">
    <title>Rectangle</title>
    <g id="Page-1" stroke="none" stroke-width="1" fill="none" fill-rule="evenodd">
        <g id="Idena_website/05a_contribute_translations" transform="translate(-508.000000, -156.000000)" fill-rule="nonzero">
            <g id="Group-16" transform="translate(508.000000, 156.000000)">
                <rect id="medium-icn" fill="#D8D8D8" opacity="0" x="0" y="0" width="40" height="40"></rect>
                <path d="M32,8 L32,32 L8,32 L8,8 L32,8 Z M16.6929231,13.4153846 L12.0184615,13.4153846 L12.0184615,13.6861538 L13.5240615,15.4998154 C13.6604675,15.6227685 13.7352632,15.7989233 13.7302013,15.980976 L13.7272615,16.0265846 L13.7272615,23.1527385 C13.7681685,23.3926789 13.7002835,23.6374278 13.5438033,23.821557 L13.5089231,23.8600615 L11.8153846,25.9144615 L11.8153846,26.1852308 L16.6176,26.1852308 L16.6176,25.9143385 L14.9240615,23.8600615 C14.7538079,23.6852053 14.6674884,23.4463074 14.6852916,23.2045623 L14.6907077,23.1527385 L14.6907077,16.9897846 L18.9058462,26.1852308 L19.3952,26.1852308 L23.0157538,16.9897846 L23.0157072,24.3587179 C23.0151474,24.5080846 23.0078705,24.5543876 22.9132699,24.6541116 L22.8877538,24.6802462 L21.5856,25.9444923 L21.5856,26.2153846 L27.9083077,26.2153846 L27.9083077,25.9444923 L26.6513231,24.7104 C26.549609,24.6328684 26.4948784,24.5095773 26.5041727,24.3835699 L26.5083077,24.3491692 L26.5083077,15.2816 C26.4872317,15.1554545 26.5317298,15.0281122 26.6247606,14.9426164 L26.6513231,14.9203692 L27.9384615,13.6862769 L27.9384615,13.4153846 L23.4824615,13.4153846 L20.3058462,21.3392 L16.6929231,13.4153846 Z" id="Shape" fill="#53565C"></path>
            </g>
        </g>
    </g>
</svg>