<?xml version="1.0" encoding="UTF-8"?>
<svg width="40px" height="40px" viewBox="0 0 40 40" version="1.1" xmlns="http://www.w3.org/2000/svg" xmlns:xlink="http://www.w3.org/1999/xlink">
    <title>reddit-icn</title>
    <g id="Page-1" stroke="none" stroke-width="1" fill="none" fill-rule="evenodd">
        <g id="Idena_website/05a_contribute_translations" transform="translate(-764.000000, -156.000000)" fill-rule="nonzero">
            <g id="Group-19" transform="translate(508.000000, 156.000000)">
                <g id="emai111l_icn" transform="translate(256.000000, 0.000000)">
                    <rect id="reddit-icn" fill="#D8D8D8" opacity="0" x="0" y="0" width="40" height="40"></rect>
                    <path d="M22.7143,24.4078 C21.9226,24.9733 20.9661,25.2512 19.9967,25.1995 C19.0272,25.2448 18.074,24.9539 17.292,24.382 C17.1595,24.2753 16.9753,24.2753 16.846,24.382 C16.6974,24.5048 16.6748,24.7277 16.7976,24.8764 C17.7217,25.5711 18.8527,25.9266 20.0096,25.8781 C21.1664,25.9266 22.2974,25.5711 23.2216,24.8764 L23.2216,24.9281 C23.3638,24.7891 23.367,24.5565 23.2281,24.4143 C23.0891,24.2721 22.8565,24.2689 22.7143,24.4078 Z" id="Path" fill="#53565C"></path>
                    <path d="M20,7 C12.8198,7 7,12.8198 7,20 C7,27.1802 12.8198,33 20,33 C27.1802,33 33,27.1802 33,20 C33,12.8198 27.1802,7 20,7 Z M27.6197,21.7288 C27.6326,21.9195 27.6326,22.1101 27.6197,22.3008 C27.6197,25.2155 24.2267,27.5809 20.042,27.5809 C15.8573,27.5809 12.4643,25.2123 12.4643,22.3008 C12.4514,22.1101 12.4514,21.9195 12.4643,21.7288 C12.2737,21.6448 12.1024,21.5252 11.9538,21.3863 C11.1879,20.6689 11.1524,19.4668 11.8697,18.7042 C12.5871,17.9384 13.7892,17.9028 14.5518,18.6202 C16.0512,17.6055 17.8123,17.0497 19.6219,17.0206 L20.5817,12.5096 C20.5817,12.5063 20.5817,12.5063 20.5817,12.5031 C20.6301,12.2834 20.8466,12.1477 21.0631,12.1961 L24.2493,12.8327 C24.4529,12.4773 24.8213,12.2381 25.2317,12.1961 C25.9458,12.1186 26.5856,12.6356 26.6632,13.3497 C26.7407,14.0639 26.2237,14.7037 25.5096,14.7813 C24.7954,14.8588 24.1556,14.3418 24.0781,13.6276 L21.2958,13.0428 L20.4524,17.0982 C22.2394,17.137 23.9779,17.6895 25.4579,18.6977 C25.7939,18.3778 26.2366,18.1872 26.702,18.171 C27.7522,18.1355 28.6311,18.953 28.6699,20 C28.6828,20.7303 28.2724,21.4024 27.6197,21.7288 Z" id="Shape" fill="#53565C"></path>
                    <path d="M16.998,22.6046 C17.7226,22.6046 18.3099,22.0172 18.3099,21.2927 C18.3099,20.5681 17.7226,19.9807 16.998,19.9807 C16.2734,19.9807 15.686,20.5681 15.686,21.2927 C15.686,22.0172 16.2734,22.6046 16.998,22.6046 Z" id="Path" fill="#53565C"></path>
                    <path d="M23.4726,22.5047 C24.1421,22.2274 24.46,21.4599 24.1827,20.7905 C23.9054,20.121 23.1379,19.8031 22.4685,20.0804 C21.799,20.3577 21.4811,21.1252 21.7584,21.7946 C22.0357,22.4641 22.8032,22.782 23.4726,22.5047 Z" id="Path" fill="#53565C"></path>
                </g>
            </g>
        </g>
    </g>
</svg>