<?xml version="1.0" encoding="UTF-8"?>
<svg width="40px" height="40px" viewBox="0 0 40 40" version="1.1" xmlns="http://www.w3.org/2000/svg" xmlns:xlink="http://www.w3.org/1999/xlink">
    <title>telegram-icn</title>
    <g id="Page-1" stroke="none" stroke-width="1" fill="none" fill-rule="evenodd">
        <g id="Idena_website/05a_contribute_translations" transform="translate(-636.000000, -156.000000)" fill-rule="nonzero">
            <g id="Group-19" transform="translate(508.000000, 156.000000)">
                <g id="Group-17" transform="translate(128.000000, 0.000000)">
                    <rect id="telegram-icn" fill="#D8D8D8" opacity="0" x="0" y="0" width="40" height="40"></rect>
                    <path d="M5.59143315,19.450235 C5.59143315,19.450235 18.8597174,14.0049312 23.4613707,12.0875049 C25.2254156,11.3205981 31.2076073,8.86628391 31.2076073,8.86628391 C31.2076073,8.86628391 33.9686842,7.79261435 33.7385591,10.4002037 C33.6618153,11.4739794 33.0482899,15.2319821 32.4347644,19.2968537 C31.5143701,25.0490264 30.5173381,31.3379809 30.5173381,31.3379809 C30.5173381,31.3379809 30.3639567,33.1020258 29.0601621,33.4087885 C27.7563674,33.7155513 25.608816,32.335119 25.2254156,32.0282501 C24.9185467,31.7982311 19.4732429,28.346885 17.479179,26.6595838 C16.9422911,26.1994397 16.3287657,25.2791515 17.5558166,24.2053758 C20.3168935,21.6744241 23.6147521,18.5299469 25.608816,16.5358829 C26.5292103,15.6154886 27.4494985,13.4680433 23.6147521,16.0756327 C18.1694482,19.8337415 12.8007819,23.3617252 12.8007819,23.3617252 C12.8007819,23.3617252 11.5736249,24.1286321 9.27279823,23.4383629 C6.97186544,22.7481998 4.28753232,21.8278054 4.28753232,21.8278054 C4.28753232,21.8278054 2.44695592,20.6773921 5.59143315,19.450235 L5.59143315,19.450235 Z" id="Path" fill="#53565C"></path>
                </g>
            </g>
        </g>
    </g>
</svg>