<?xml version="1.0" encoding="UTF-8"?>
<svg width="40px" height="40px" viewBox="0 0 40 40" version="1.1" xmlns="http://www.w3.org/2000/svg" xmlns:xlink="http://www.w3.org/1999/xlink">
    <title>twitter-icn</title>
    <defs>
        <path d="M23.8219,3.4107 C24.9733,2.7278 25.8346,1.6559 26.2459,0.3938 C25.1598,1.0316 23.971,1.4811 22.7312,1.7228 C21.0184,-0.07683 18.2954,-0.51879 16.0889,0.6447 C13.8824,1.8082 12.741,4.2879 13.3047,6.6935 C8.8597,6.4738 4.7184,4.4012 1.91222,0.9918 C0.44598,3.4847 1.19464,6.6729 3.6224,8.275 C2.74472,8.2494 1.88593,8.017 1.11771,7.5972 L1.11771,7.6637 C1.13515,10.2467 2.98348,12.4646 5.5481,12.9799 C4.7357,13.1975 3.8836,13.2293 3.0569,13.0729 C3.7807,15.2925 5.8523,16.814 8.2145,16.8607 C6.2565,18.3798 3.8372,19.2038 1.34663,19.1998 C0.89654,19.1998 0.44686,19.1732 0,19.1201 C4.8395,22.2039 11.0007,22.4273 16.0565,19.7024 C21.1122,16.9774 24.2522,11.7408 24.2394,6.0555 C24.2394,5.8163 24.2394,5.5815 24.2394,5.3511 C25.3207,4.5852 26.2554,3.6356 27,2.5468 C25.9904,2.9901 24.9191,3.2813 23.8219,3.4107 Z" id="path-1"></path>
    </defs>
    <g id="Page-1" stroke="none" stroke-width="1" fill="none" fill-rule="evenodd">
        <g id="Idena_website/05a_contribute_translations" transform="translate(-572.000000, -156.000000)">
            <g id="Group-19" transform="translate(508.000000, 156.000000)">
                <g id="twitter_icn" transform="translate(64.000000, 0.000000)">
                    <rect id="twitter-icn" fill="#D8D8D8" fill-rule="nonzero" opacity="0" x="0" y="0" width="40" height="40"></rect>
                    <path d="M30.8219,13.4107 C31.9733,12.7278 32.8346,11.6559 33.2459,10.3938 C32.1598,11.0316 30.971,11.4811 29.7312,11.7228 C28.0184,9.92317 25.2954,9.48121 23.0889,10.6447 C20.8824,11.8082 19.741,14.2879 20.3047,16.6935 C15.8597,16.4738 11.7184,14.4012 8.91222,10.9918 C7.44598,13.4847 8.19464,16.6729 10.6224,18.275 C9.74472,18.2494 8.88593,18.017 8.11771,17.5972 L8.11771,17.6637 C8.13515,20.2467 9.98348,22.4646 12.5481,22.9799 C11.7357,23.1975 10.8836,23.2293 10.0569,23.0729 C10.7807,25.2925 12.8523,26.814 15.2145,26.8607 C13.2565,28.3798 10.8372,29.2038 8.34663,29.1998 C7.89654,29.1998 7.44686,29.1732 7,29.1201 C11.8395,32.2039 18.0007,32.4273 23.0565,29.7024 C28.1122,26.9774 31.2522,21.7408 31.2394,16.0555 C31.2394,15.8163 31.2394,15.5815 31.2394,15.3511 C32.3207,14.5852 33.2554,13.6356 34,12.5468 C32.9904,12.9901 31.9191,13.2813 30.8219,13.4107 Z" id="Path" fill="#53565C"></path>
                    <g id="Clipped" transform="translate(7.000000, 10.000000)">
                        <mask id="mask-2" fill="white">
                            <use xlink:href="#path-1"></use>
                        </mask>
                        <g id="Path"></g>
                    </g>
                </g>
            </g>
        </g>
    </g>
</svg>